<svg width="107" height="106" viewBox="0 0 107 106" fill="none" xmlns="http://www.w3.org/2000/svg">
<mask id="mask0_3_28" style="mask-type:alpha" maskUnits="userSpaceOnUse" x="0" y="0" width="107" height="106">
<ellipse cx="53.5" cy="53" rx="53.5" ry="53" fill="#EFD7F5"/>
</mask>
<g mask="url(#mask0_3_28)">
<rect x="-100" y="-5" width="355" height="138" fill="#EFD7F5"/>
<path opacity="0.68" d="M-86.8975 52.6802C-81.4834 53.9302 -71.4803 60.8802 -60.91 58.6802C-50.3397 56.4802 -46.4725 42.2202 -36.16 42.1202C-25.8475 42.0202 -21.7225 57.4002 -11.41 58.2002C-1.0975 59.0002 3.0275 45.7602 13.34 45.9602C23.6525 46.1602 27.7775 58.7102 38.09 59.1602C48.4025 59.6102 52.5275 47.3202 62.84 48.1202C73.1525 48.9202 77.2775 62.6002 87.59 63.0002C97.9025 63.4002 102.027 50.6402 112.34 50.0402C122.652 49.4402 126.777 60.7702 137.09 60.1202C147.402 59.4702 151.527 46.3702 161.84 46.9202C172.152 47.4702 176.535 61.5602 186.59 62.7602C196.645 63.9602 198.501 35.2802 210.102 52.6802C221.704 70.0802 316.785 101.78 242.278 146.28C167.77 190.78 -66.3241 241.28 -147.535 266.28" fill="url(#paint0_linear_3_28)"/>
<path d="M-86.8975 61.0802C-81.4834 62.3302 -71.4803 69.2802 -60.91 67.0802C-50.3397 64.8802 -46.4725 50.6202 -36.16 50.5202C-25.8475 50.4202 -21.7225 65.8002 -11.41 66.6002C-1.0975 67.4002 3.0275 54.1602 13.34 54.3602C23.6525 54.5602 27.7775 67.1102 38.09 67.5602C48.4025 68.0102 52.5275 55.7202 62.84 56.5202C73.1525 57.3202 77.2775 71.0002 87.59 71.4002C97.9025 71.8002 102.027 59.0402 112.34 58.4402C122.652 57.8402 126.777 69.1702 137.09 68.5202C147.402 67.8702 151.527 54.7702 161.84 55.3202C172.152 55.8702 176.535 69.9602 186.59 71.1602C196.645 72.3602 198.501 43.6802 210.102 61.0802C221.704 78.4802 316.785 110.18 242.278 154.68C167.77 199.18 -66.3241 249.68 -147.535 274.68" fill="url(#paint1_linear_3_28)"/>
</g>
<defs>
<linearGradient id="paint0_linear_3_28" x1="20756" y1="42.1198" x2="20756" y2="22458.2" gradientUnits="userSpaceOnUse">
<stop stop-color="#FA9938"/>
<stop offset="1" stop-color="#FCCC9C"/>
</linearGradient>
<linearGradient id="paint1_linear_3_28" x1="20756" y1="50.5197" x2="20756" y2="22466.6" gradientUnits="userSpaceOnUse">
<stop stop-color="#FA9938"/>
<stop offset="1" stop-color="#FCCC9C"/>
</linearGradient>
</defs>
</svg>
