<svg xmlns="http://www.w3.org/2000/svg" preserveAspectRatio="none" version="1.1" xmlns:xlink="http://www.w3.org/1999/xlink"
    xmlns:svgjs="http://svgjs.dev/svgjs" viewBox="0 0 2400 800" style="transform: rotateZ(180deg);">
    <defs>
        <linearGradient x1="50%" y1="0%" x2="50%" y2="100%" id="sssurf-grad">
            <stop stop-color="hsl(30, 95%, 60%)" stop-opacity="1" offset="0%"></stop>
            <stop stop-color="hsl(30, 95%, 80%)" stop-opacity="1" offset="100%"></stop>
        </linearGradient>
    </defs>
    <g fill="url(#sssurf-grad)" transform="matrix(1,0,0,1,10.8282470703125,279.50098419189453)">
        <path
            d="M-10,10
            C33.75,15.208333333333334,114.58333333333334,44.166666666666664,200,35
            C285.41666666666663,25.833333333333336,316.66666666666663,-33.583333333333336,400,-34
            C483.33333333333337,-34.416666666666664,516.6666666666666,29.666666666666668,600,33
            683.3333333333334,36.333333333333336,716.6666666666666,-18.833333333333332,800,-18
            C883.3333333333334,-17.166666666666668,916.6666666666666,35.125,1000,37
            C1083.3333333333333,38.875,1116.6666666666667,-12.333333333333332,1200,-9
            C1283.3333333333333,-5.666666666666667,1316.6666666666667,51.333333333333336,1400,53
            C1483.3333333333333,54.666666666666664,1516.6666666666667,1.5,1600,-1
            C1683.3333333333333,-3.5,1716.6666666666667,43.708333333333336,1800,41
            C1883.3333333333333,38.291666666666664,1916.6666666666667,-16.291666666666668,2000,-14
            C2083.3333333333335,-11.708333333333334,2118.75,47,2200,52
            C2281.25,57,2296.25,-62.5,2390,10
            C2483.75,82.5,3252.0833333333335,214.58333333333331,2650,400
            C2047.9166666666665,585.4166666666667,156.25,795.8333333333334,-500,900"
            transform="matrix(1,0,0,1,0,105)" opacity="0.68"></path>
        <path
            d="M-10,10
            C33.75,15.208333333333334,114.58333333333334,44.166666666666664,200,35
            C285.41666666666663,25.833333333333336,316.66666666666663,-33.583333333333336,400,-34
            C483.33333333333337,-34.416666666666664,516.6666666666666,29.666666666666668,600,33
            C683.3333333333334,36.333333333333336,716.6666666666666,-18.833333333333332,800,-18
            C883.3333333333334,-17.166666666666668,916.6666666666666,35.125,1000,37
            C1083.3333333333333,38.875,1116.6666666666667,-12.333333333333332,1200,-9
            C1283.3333333333333,-5.666666666666667,1316.6666666666667,51.333333333333336,1400,53
            C1483.3333333333333,54.666666666666664,1516.6666666666667,1.5,1600,-1
            C1683.3333333333333,-3.5,1716.6666666666667,43.708333333333336,1800,41
            C1883.3333333333333,38.291666666666664,1916.6666666666667,-16.291666666666668,2000,-14
            C2083.3333333333335,-11.708333333333334,2118.75,47,2200,52
            C2281.25,57,2296.25,-62.5,2390,10
            C2483.75,82.5,3252.0833333333335,214.58333333333331,2650,400
            C2047.9166666666665,585.4166666666667,156.25,795.8333333333334,-500,900"
            transform="matrix(1,0,0,1,0,140)" opacity="1.00"></path>
    </g>
</svg>